<svg xmlns="http://www.w3.org/2000/svg" width="468" height="471" viewBox="0 0 468 471" version="1.1"><path d="M 190.018 43.077 C 184.450 45.603, 182 47.765, 182 50.155 C 182 52.353, 183.886 52.492, 188.355 50.625 C 191.939 49.128, 199 43.338, 199 41.896 C 199 40.380, 194.726 40.941, 190.018 43.077 M 279.103 45.328 C 283.456 49.588, 291.151 53.182, 292.669 51.664 C 293.030 51.304, 292.838 49.939, 292.242 48.632 C 290.982 45.866, 283.846 42.137, 278.332 41.363 L 274.500 40.825 279.103 45.328 M 177.991 44.831 C 172.354 48.455, 169.337 51.740, 168.483 55.182 C 167.872 57.645, 168.150 57.965, 171.891 59.086 C 175.327 60.115, 176.988 60.029, 182.494 58.539 C 186.085 57.567, 189.254 56.397, 189.537 55.940 C 190.102 55.026, 183.783 53.014, 180.320 53.006 L 178.141 53 180.655 48.502 C 182.037 46.029, 183.014 43.541, 182.825 42.974 C 182.636 42.407, 180.460 43.243, 177.991 44.831 M 292 44.040 C 292 44.612, 292.888 46.821, 293.974 48.950 L 295.949 52.819 291.176 53.476 C 284.351 54.414, 282.813 55.593, 286.534 57.032 C 288.165 57.663, 291.975 58.635, 295 59.191 C 308.112 61.604, 310.020 53.839, 298.234 46.032 C 293.363 42.805, 292 42.370, 292 44.040 M 162.395 52.965 C 157.808 56.474, 154 61.899, 154 64.926 C 154 66.793, 159.228 68.210, 163.841 67.594 C 169.392 66.852, 177.340 63.359, 176.515 62.024 C 176.167 61.461, 173.234 61, 169.997 61 L 164.112 61 166.122 56.458 C 169.264 49.353, 168.299 48.449, 162.395 52.965 M 306.960 52.861 C 307.411 54.434, 308.280 56.654, 308.890 57.795 C 310.551 60.899, 310.423 60.999, 304.750 61.015 C 296.905 61.038, 295.543 62.447, 301.073 64.817 C 307.458 67.554, 311.448 68.269, 316.022 67.496 C 319.618 66.889, 320 66.538, 320 63.847 C 320 61.576, 318.711 59.581, 314.565 55.435 C 308.379 49.248, 305.660 48.328, 306.960 52.861 M 147.092 63.003 C 142.354 67.741, 140.088 72.764, 141.193 76.078 C 142.226 79.177, 154.933 77.242, 161.943 72.919 C 165.058 70.997, 165.211 70.698, 163.557 69.772 C 162.551 69.209, 159.314 68.997, 156.364 69.302 C 153.414 69.606, 151 69.730, 151 69.577 C 151 69.424, 151.413 67.994, 151.917 66.399 C 153.636 60.968, 154.042 58, 153.067 58 C 152.532 58, 149.844 60.251, 147.092 63.003 M 321.044 60.250 C 321.068 61.487, 321.686 64.175, 322.416 66.221 L 323.745 69.943 318.012 69.343 C 314.652 68.992, 311.497 69.183, 310.390 69.805 C 308.744 70.729, 309.400 71.287, 315.471 74.130 C 320.135 76.315, 324.190 77.465, 327.725 77.605 C 332.482 77.794, 333.066 77.587, 333.584 75.523 C 334.379 72.355, 331.005 66.141, 326.070 61.682 C 323.828 59.657, 321.771 58, 321.497 58 C 321.224 58, 321.020 59.013, 321.044 60.250 M 335 71.060 C 335 72.959, 335.430 76.013, 335.956 77.847 C 336.803 80.799, 336.717 81.096, 335.206 80.443 C 334.268 80.038, 330.575 79.492, 327 79.229 L 320.500 78.752 322.427 80.901 C 325.320 84.126, 335.899 88.850, 341 89.195 L 345.500 89.500 345.806 85.820 C 346.183 81.293, 343.471 75.744, 338.588 71.054 L 335 67.608 335 71.060 M 134.541 72.134 C 128.939 78.792, 126.353 86.864, 129.249 88.654 C 130.798 89.611, 135.383 89.241, 139.989 87.788 C 144.481 86.370, 153 81.137, 153 79.794 C 153 78.644, 142.744 79.195, 139.635 80.512 C 138.118 81.155, 137.871 80.947, 138.312 79.401 C 138.610 78.356, 139.151 75.588, 139.515 73.250 C 140.342 67.934, 138.435 67.506, 134.541 72.134 M 121.858 84.383 C 118.288 89.432, 116.201 94.188, 116.076 97.559 C 115.965 100.554, 118.386 103.449, 120.366 102.690 C 121.276 102.341, 122.235 102.023, 122.497 101.983 C 128.429 101.097, 142 93.311, 142 90.795 C 142 89.443, 134.129 89.919, 130.346 91.500 C 128.371 92.325, 126.607 93, 126.425 93 C 126.243 93, 126.354 90.809, 126.671 88.132 C 126.988 85.455, 126.790 82.448, 126.232 81.450 C 125.331 79.840, 124.837 80.171, 121.858 84.383 M 348 86.500 C 348 90.075, 347.830 93, 347.622 93 C 347.414 93, 345.629 92.325, 343.654 91.500 C 341.680 90.675, 338.137 90.019, 335.782 90.042 L 331.500 90.083 335.500 93.634 C 340.361 97.949, 344.912 100.316, 351.408 101.906 C 356.992 103.274, 357.965 102.620, 357.975 97.500 C 357.984 92.690, 351.085 80, 348.461 80 C 348.207 80, 348 82.925, 348 86.500 M 109.078 100.160 C 105.712 106.895, 105.053 113.323, 107.399 116.532 C 108.566 118.127, 109.190 118.259, 111.149 117.328 C 112.442 116.713, 116.047 115.024, 119.161 113.575 C 122.274 112.126, 126.541 109.041, 128.644 106.720 L 132.466 102.500 129.265 102.189 C 126.610 101.931, 122.471 103.338, 115.750 106.782 C 115.338 106.994, 115 104.916, 115 102.165 C 115 96.833, 114.296 94, 112.971 94 C 112.523 94, 110.771 96.772, 109.078 100.160 M 293.997 97.509 C 292.314 102.609, 290.477 104, 285.429 104 C 282.993 104, 281 104.319, 281 104.708 C 281 105.097, 282.621 107.076, 284.603 109.105 C 288.152 112.740, 288.190 112.867, 287.173 117.635 C 286.606 120.297, 286.280 122.613, 286.450 122.783 C 286.619 122.953, 288.838 122.081, 291.379 120.846 L 296 118.601 300.397 120.737 C 302.815 121.912, 305.007 122.660, 305.267 122.399 C 305.528 122.138, 305.295 119.830, 304.748 117.269 C 303.773 112.693, 303.818 112.555, 307.378 109.293 C 309.370 107.467, 311 105.529, 311 104.987 C 311 104.444, 309.045 104, 306.655 104 C 301.887 104, 300.187 102.668, 298.043 97.250 C 296.396 93.087, 295.436 93.148, 293.997 97.509 M 359.633 97.086 C 359.285 98.826, 359 101.748, 359 103.579 L 359 106.908 353.750 104.464 C 350.863 103.119, 346.925 102.031, 345 102.045 L 341.500 102.070 347.726 107.988 C 351.898 111.952, 355.363 114.307, 358.226 115.121 C 360.577 115.790, 362.928 116.711, 363.450 117.169 C 366.481 119.821, 369.409 114.407, 368.389 108.034 C 367.727 103.890, 363.113 94.832, 361.383 94.279 C 360.768 94.083, 359.981 95.346, 359.633 97.086 M 209.393 107.828 C 207.855 109.114, 207.405 110.400, 207.727 112.594 C 208.114 115.233, 208.568 115.600, 211.440 115.600 C 214.169 115.600, 214.904 115.094, 215.863 112.552 C 216.630 110.520, 216.672 109.391, 215.989 109.163 C 215.425 108.975, 214.329 108.187, 213.554 107.411 C 211.830 105.687, 211.971 105.673, 209.393 107.828 M 99.870 113.131 C 96.837 118.913, 96.512 130.950, 99.315 133.712 C 101.059 135.431, 101.201 135.413, 102.975 133.250 C 103.990 132.012, 105.423 130.998, 106.160 130.995 C 108.762 130.985, 115.072 126.377, 119.012 121.609 C 123.420 116.274, 123.854 114.995, 121.250 115.010 C 118.710 115.024, 109.746 119.385, 108.055 121.429 C 106.746 123.011, 106.489 122.585, 105.332 116.916 C 103.614 108.491, 102.653 107.825, 99.870 113.131 M 370.139 112.750 C 369.623 114.813, 368.917 117.758, 368.570 119.296 L 367.939 122.093 365.035 120.025 C 361.990 117.857, 354.760 115, 352.318 115 C 348.275 115, 361.507 129.374, 366.664 130.584 C 368.224 130.951, 370.268 132.206, 371.206 133.375 L 372.912 135.500 375.189 133.239 C 377.046 131.395, 377.458 129.919, 377.422 125.239 C 377.378 119.595, 373.785 109, 371.915 109 C 371.454 109, 370.655 110.688, 370.139 112.750 M 247.923 115.923 C 240.815 123.031, 247.864 134.180, 257.463 131.012 C 260.133 130.131, 261.432 128.901, 262.571 126.177 C 264.424 121.741, 263.768 118.617, 260.314 115.415 C 256.589 111.963, 251.682 112.164, 247.923 115.923 M 91.536 129.260 C 87.949 137.845, 89.032 148.617, 93.800 151.783 C 95.767 153.089, 96.041 153.004, 97.056 150.776 C 97.666 149.437, 99.688 147.791, 101.550 147.118 C 105.252 145.779, 110.222 140.509, 113.822 134.102 C 115.767 130.642, 115.878 130, 114.532 130 C 111.586 130, 105.528 133.074, 102.282 136.216 C 99.943 138.479, 98.949 138.944, 98.642 137.915 C 97.106 132.762, 94.697 126.931, 93.900 126.438 C 93.382 126.118, 92.318 127.388, 91.536 129.260 M 379.720 128.081 C 378.869 129.412, 377.609 132.425, 376.920 134.778 L 375.667 139.055 373.083 136.630 C 368.257 132.099, 359 128.270, 359 130.804 C 359 134.075, 369.632 146.456, 373.429 147.606 C 374.568 147.951, 376.405 149.337, 377.511 150.686 L 379.522 153.138 382.011 150.486 C 384.248 148.102, 384.498 147.006, 384.480 139.667 C 384.466 134.107, 383.950 130.568, 382.863 128.581 L 381.267 125.662 379.720 128.081 M 273 129.574 C 263.277 133.728, 253.931 135.295, 241.844 134.797 L 230.902 134.346 233.641 136.531 C 235.148 137.732, 238.794 139.535, 241.743 140.538 C 244.692 141.540, 247.323 142.714, 247.590 143.146 C 248.537 144.678, 243.897 152.054, 239.349 156.246 C 233.470 161.666, 228.089 164.864, 221.070 167.110 L 215.500 168.892 220.263 168.946 C 224.752 168.997, 234.746 166.641, 241.559 163.925 C 243.395 163.193, 246.093 162.982, 248.309 163.398 C 251.492 163.995, 252 164.466, 252 166.817 C 252 168.316, 251.131 172.677, 250.069 176.507 C 249.007 180.337, 248.269 183.602, 248.429 183.762 C 248.969 184.302, 257.370 172.607, 259.726 168.035 C 262.570 162.519, 265 151.727, 265 144.619 C 265 139.605, 265.169 139.270, 268.750 137.192 C 273.784 134.272, 281.879 127.039, 280 127.142 C 279.175 127.187, 276.025 128.281, 273 129.574 M 216.316 141.084 C 214.513 142.887, 215.970 146, 218.617 146 C 220.464 146, 221 145.462, 221 143.607 C 221 142.291, 220.288 140.941, 219.418 140.607 C 217.413 139.838, 217.589 139.811, 216.316 141.084 M 385.559 147.906 C 384.104 150.211, 382.497 153.193, 381.988 154.532 C 381.063 156.964, 381.057 156.961, 376.254 152.159 C 371.028 146.933, 365 143.945, 365 146.581 C 365 151.421, 375.536 166, 379.035 166 C 379.566 166, 380 166.589, 380 167.309 C 380 168.029, 380.588 169.423, 381.308 170.406 C 382.542 172.095, 382.788 172.049, 385.709 169.591 C 389.552 166.358, 391.502 159.176, 390.568 151.699 C 389.567 143.685, 388.658 142.997, 385.559 147.906 M 84.641 147.209 C 82.127 156.592, 85.925 170.500, 91 170.500 C 92.831 170.500, 93.585 169.898, 93.820 168.250 C 93.995 167.012, 94.748 166, 95.493 166 C 98.303 166, 103.092 160.594, 106.639 153.417 C 108.660 149.327, 110.049 145.715, 109.724 145.391 C 108.632 144.299, 98.782 150.419, 96.215 153.784 L 93.671 157.120 90.586 151.371 C 87.133 144.938, 85.547 143.828, 84.641 147.209 M 184.638 146.500 C 184.322 147.325, 183.416 148, 182.625 148 C 181.451 148, 181.400 148.456, 182.344 150.492 C 183.874 153.791, 188.252 153.938, 189.709 150.740 C 190.564 148.862, 190.348 148.187, 188.431 146.740 C 185.621 144.621, 185.366 144.605, 184.638 146.500 M 289.162 147.544 C 288.511 148.973, 287.198 150, 286.021 150 C 283.895 150, 283.302 151.451, 285 152.500 C 285.550 152.840, 286 153.916, 286 154.892 C 286 156.329, 286.858 156.667, 290.514 156.667 C 294.324 156.667, 294.944 156.399, 294.485 154.952 C 294.164 153.942, 294.570 152.995, 295.470 152.650 C 297.400 151.909, 297.474 150, 295.573 150 C 294.787 150, 293.276 148.895, 292.213 147.544 L 290.281 145.088 289.162 147.544 M 100.307 164.892 C 95.784 168.169, 92 172.607, 92 174.635 C 92 176.889, 90.540 176.185, 88.678 173.032 C 85.876 168.289, 81.896 163.946, 80.909 164.556 C 79.496 165.429, 79.838 175.092, 81.476 180.609 C 83.922 188.844, 91.947 194.338, 92.803 188.363 C 92.970 187.199, 95.085 184.182, 97.502 181.659 C 100.744 178.275, 102.436 175.330, 103.949 170.431 C 106.991 160.581, 106.755 160.222, 100.307 164.892 M 369.126 166.250 C 370.506 172.674, 375.167 181.196, 378.545 183.472 C 381.798 185.665, 382 185.988, 382 189 C 382 192.006, 385.712 191.519, 388.912 188.094 C 392.437 184.321, 394 178.902, 394 170.460 L 394 163.651 391.375 166.076 C 389.931 167.409, 387.517 170.460, 386.010 172.856 C 383.422 176.970, 383.237 177.080, 382.673 174.835 C 381.749 171.152, 371.917 162.022, 368.856 162.004 C 368.502 162.002, 368.624 163.912, 369.126 166.250 M 177.180 168.283 C 174.999 170.911, 173.187 182.966, 172.045 202.446 C 171.435 212.866, 170.299 224.341, 169.521 227.946 C 166.161 243.516, 164.893 251.879, 165.186 256.529 L 165.500 261.500 173 261.722 C 177.125 261.844, 186.575 262.662, 194 263.540 C 224.616 267.158, 223.264 266.737, 222.768 272.500 L 222.510 275.500 229.436 275.268 C 237.880 274.984, 242.362 273.600, 245.382 270.344 C 246.953 268.650, 250.474 267.121, 256.586 265.480 C 261.489 264.164, 267.975 262.363, 271 261.478 C 274.025 260.592, 280.550 258.811, 285.500 257.520 C 307.317 251.827, 310.771 250.884, 315.362 249.369 L 320.223 247.765 319.694 242.133 C 318.943 234.129, 316.156 211.103, 314.916 202.653 C 313.465 192.768, 310 168.599, 310 168.368 C 310 168.264, 306.962 169.280, 303.250 170.627 C 299.538 171.974, 291.775 173.714, 286 174.494 C 275.679 175.888, 268.392 178.119, 256.500 183.526 C 246.571 188.041, 246.341 188.046, 237.390 183.940 C 232.930 181.894, 227.755 179.894, 225.890 179.494 C 224.026 179.095, 220.700 178.194, 218.500 177.493 C 216.300 176.792, 209.775 174.793, 204 173.052 C 198.225 171.310, 192.129 169.465, 190.453 168.951 C 184.063 166.993, 178.484 166.712, 177.180 168.283 M 98.134 183.866 C 96.007 185.993, 93.475 189.807, 92.507 192.343 L 90.746 196.955 87.457 192.647 C 83.831 187.898, 79.404 184.537, 78.565 185.895 C 77.590 187.472, 80.129 198.320, 82.625 203.246 C 85.228 208.384, 90.305 212.345, 93.329 211.598 C 94.642 211.274, 94.995 211.572, 94.579 212.655 C 94.261 213.485, 94 214.800, 94 215.578 C 94 216.411, 91.455 214.941, 87.800 211.996 C 84.390 209.248, 81.183 207, 80.672 207 C 78.982 207, 81.021 215.260, 84.170 221.168 C 87.641 227.680, 92.883 232.251, 97.051 232.400 C 99.299 232.481, 99.921 233.035, 100.248 235.250 C 100.741 238.591, 100.666 238.599, 96.683 235.614 C 92.795 232.700, 84.972 228.695, 84.361 229.306 C 83.307 230.360, 89.183 241.243, 93.101 245.493 C 98.161 250.983, 100.181 252.204, 105.430 252.945 C 108.649 253.400, 109.491 253.991, 110.085 256.219 L 110.810 258.938 105.726 256.361 C 98.223 252.559, 93 250.854, 93 252.207 C 93 254.428, 99.316 263.098, 104.004 267.314 C 109.076 271.874, 115.405 274.438, 119.224 273.480 C 121.118 273.005, 121.734 273.457, 122.708 276.037 C 123.768 278.846, 123.715 279.098, 122.196 278.458 C 116.061 275.875, 110.985 274.167, 107.656 273.567 L 103.813 272.874 105.656 276.043 C 108.303 280.591, 117.072 288.344, 122.407 290.851 C 126.954 292.988, 135.529 293.789, 136.167 292.136 C 136.350 291.661, 137.528 292.840, 138.784 294.756 C 140.743 297.745, 140.814 298.139, 139.284 297.529 C 135.783 296.135, 120.923 293.744, 120.218 294.462 C 118.980 295.722, 129.715 304.734, 136.338 307.995 C 143.452 311.497, 152.505 312.383, 154.442 309.766 C 155.320 308.580, 156.034 308.861, 158.642 311.418 L 161.785 314.500 150.779 314.159 C 142.389 313.898, 139.870 314.110, 140.183 315.048 C 140.832 316.997, 152.258 323.493, 158.476 325.449 C 164.865 327.458, 174.794 327.245, 177.449 325.042 C 178.925 323.818, 178.879 323.501, 176.935 321.430 C 175.762 320.182, 173.609 318.667, 172.151 318.062 C 169.879 317.121, 169.487 316.337, 169.407 312.587 C 169.347 309.794, 168.357 306.578, 166.671 303.701 C 163.893 298.961, 154.358 288, 153.013 288 C 150.992 288, 151.388 298.702, 153.622 304.475 C 154.324 306.287, 154.145 306.259, 151.445 304.135 C 148.718 301.990, 148.526 301.408, 148.820 296.161 C 149.093 291.304, 148.634 289.505, 145.595 283.500 C 143.646 279.650, 140.951 275.150, 139.606 273.500 L 137.161 270.500 136.008 273.500 C 135.374 275.150, 135 279.291, 135.178 282.702 L 135.500 288.904 132.794 286.307 C 130.324 283.936, 130.215 283.531, 131.544 281.633 C 132.345 280.490, 133 277.701, 133 275.434 C 133 269.080, 127.317 254, 124.923 254 C 123.235 254, 121 260.610, 121 265.603 L 121 270.270 118.954 267.669 C 117.025 265.217, 117.003 264.926, 118.554 262.557 C 120.688 259.301, 120.714 249.927, 118.609 242.850 C 116.299 235.081, 115.454 234.025, 113.534 236.505 C 112.685 237.602, 111.244 241.084, 110.333 244.242 C 108.800 249.556, 108.591 249.817, 107.529 247.742 C 106.582 245.890, 106.741 245.005, 108.441 242.660 C 110.202 240.230, 110.497 238.350, 110.479 229.660 C 110.467 224.072, 109.969 218.658, 109.372 217.629 C 108.369 215.902, 108.076 216.033, 105.546 219.351 C 104.039 221.327, 102.236 224.869, 101.540 227.222 L 100.274 231.500 99.542 228.180 C 98.996 225.703, 99.207 224.560, 100.373 223.680 C 103.943 220.983, 107.164 206.772, 105.608 200.574 C 105.059 198.388, 104.643 198.121, 103.085 198.954 C 102.059 199.503, 99.872 201.987, 98.226 204.473 C 95.668 208.335, 95.155 208.701, 94.706 206.984 C 94.353 205.635, 94.840 204.621, 96.185 203.901 C 99.106 202.338, 103.117 192.801, 103.739 185.941 C 104.388 178.790, 103.528 178.472, 98.134 183.866 M 370 181.951 C 370 188.955, 374.031 199.912, 377.894 203.405 C 379.197 204.584, 379.985 206.490, 379.961 208.405 L 379.922 211.500 378.582 208.422 C 377.077 204.966, 371.272 198, 369.896 198 C 368.664 198, 368.775 211.649, 370.044 216.219 C 370.612 218.264, 372.087 221.189, 373.321 222.719 C 374.603 224.307, 375.413 226.471, 375.211 227.765 C 374.811 230.325, 373 229.814, 373 227.141 C 373 224.797, 367.865 217, 366.322 217 C 364.685 217, 363.569 222.866, 363.531 231.666 C 363.505 237.590, 363.896 239.368, 365.783 241.920 C 367.571 244.339, 367.842 245.427, 367.033 246.938 C 366.465 248, 366 249.798, 366 250.934 C 366 254.206, 371.745 253.692, 376.899 249.958 C 382.878 245.627, 391.686 231.353, 389.642 229.308 C 389.048 228.715, 383.612 231.521, 378.250 235.189 L 374 238.096 374.015 234.298 C 374.026 231.768, 374.320 230.956, 374.896 231.867 C 375.598 232.975, 376.438 233.011, 379.331 232.056 C 383.272 230.755, 387.966 225.947, 390.890 220.217 C 393.056 215.970, 395.370 208.036, 394.651 207.318 C 393.813 206.480, 389.780 209.125, 384.812 213.773 L 380 218.274 380 215.137 C 380 212.685, 380.429 212, 381.965 212 C 385.036 212, 390.537 206.504, 392.851 201.124 C 395.301 195.430, 396.834 185, 395.222 185 C 394.642 185, 391.655 187.777, 388.584 191.170 C 385.054 195.071, 383 196.712, 383 195.631 C 383 192.675, 379.262 186.437, 375.524 183.155 C 371.375 179.512, 370 179.212, 370 181.951 M 356.417 241.222 C 353.958 249.274, 353.843 260.064, 356.186 262.654 C 357.770 264.403, 357.764 264.661, 356.089 266.882 L 354.306 269.246 353.675 264.643 C 352.889 258.909, 350.349 252.666, 349.114 253.430 C 348.603 253.745, 346.748 257.455, 344.992 261.673 C 341.554 269.933, 340.512 279.502, 342.756 282.207 C 343.748 283.401, 343.502 284.119, 341.441 286.056 L 338.907 288.436 339.548 284.426 C 340.203 280.331, 338.573 272, 337.116 272 C 335.731 272, 333.338 275.243, 329.369 282.500 C 326.108 288.462, 325.530 290.444, 325.471 295.865 C 325.411 301.517, 325.114 302.442, 322.820 304.112 L 320.238 305.994 321.575 302.247 C 323.190 297.720, 323.410 289.371, 321.937 288.461 C 320.564 287.613, 317.827 290.112, 312.336 297.229 C 306.922 304.246, 304.703 309.334, 305.201 313.595 C 305.532 316.433, 305.171 317.025, 302.255 318.415 C 300.428 319.287, 298.754 320, 298.536 320 C 298.319 320, 299.191 318.087, 300.474 315.750 C 303.122 310.925, 304.641 303.514, 303.168 302.604 C 301.842 301.784, 290.976 310.084, 286.055 315.675 C 282.201 320.053, 280.082 325.706, 281.460 327.935 C 281.830 328.535, 281.327 329.019, 280.309 329.044 C 279.314 329.068, 276.800 329.694, 274.723 330.435 L 270.945 331.783 274.817 327.583 C 278.434 323.658, 282.912 314.579, 281.786 313.453 C 280.940 312.607, 272.264 316.732, 264.989 321.439 C 256.916 326.661, 251.958 333.040, 254.031 335.537 C 254.940 336.633, 256.227 336.900, 258.409 336.447 C 261.371 335.832, 261.416 335.872, 259.500 337.390 C 256.346 339.888, 242.383 344, 237.054 344 C 231.663 344, 221.359 341.027, 216 337.926 C 212.876 336.118, 212.787 335.959, 215.171 336.449 C 227.499 338.983, 218.627 325.687, 202.347 317.234 C 197.863 314.905, 193.926 313, 193.597 313 C 191.110 313, 194.894 322.338, 199.702 328.066 C 202.043 330.855, 202.174 331.273, 200.500 330.629 C 199.400 330.206, 197.270 329.612, 195.766 329.308 C 194.263 329.005, 193.284 328.350, 193.590 327.854 C 194.940 325.671, 192.411 320.477, 187.322 314.981 C 182.329 309.588, 173.148 302, 171.616 302 C 170.110 302, 171.235 309.955, 173.383 314.500 C 175.640 319.274, 178.916 322.976, 183.694 326.151 C 185.734 327.508, 185.221 327.694, 176.335 328.816 C 164.563 330.303, 162.896 331.047, 166.316 333.287 C 175.627 339.388, 195.105 341.506, 202.376 337.209 C 205.804 335.183, 206.440 335.088, 207.876 336.382 C 209.951 338.253, 223.955 344.977, 225.972 345.071 C 226.812 345.110, 224.730 345.935, 221.345 346.904 C 214.619 348.829, 205.850 353.009, 202.141 356.058 C 200.377 357.508, 199.938 358.616, 200.399 360.453 C 201.014 362.905, 201.025 362.901, 207.384 358.088 C 225.333 344.502, 252.341 344.985, 268.467 359.180 C 272.999 363.169, 273.002 363.170, 273.890 360.836 C 274.515 359.193, 274.360 358.024, 273.367 356.897 C 271.071 354.288, 262.061 349.787, 254.540 347.490 L 247.528 345.349 252.514 343.655 C 255.256 342.724, 260.077 340.374, 263.227 338.434 L 268.954 334.906 271.795 337.006 C 277.856 341.488, 293.596 340.261, 306 334.341 L 311.500 331.716 307.362 330.454 C 305.085 329.760, 299.768 328.868, 295.546 328.472 L 287.869 327.753 291.619 325.490 C 294.815 323.561, 295.574 323.431, 296.755 324.612 C 300.831 328.688, 312.405 327.613, 323.468 322.131 C 327.939 319.915, 332.432 317.180, 333.453 316.051 C 335.284 314.028, 335.270 313.999, 332.405 313.921 C 325.896 313.745, 316.351 314.159, 314.059 314.718 C 311.816 315.264, 311.889 315.071, 314.961 312.326 C 318.073 309.545, 318.540 309.421, 321.745 310.523 C 328.329 312.787, 338.118 309.450, 348.250 301.489 C 355.564 295.742, 355.869 293.621, 349.250 294.530 C 344.396 295.197, 338.132 296.628, 335.283 297.722 C 333.899 298.253, 333.924 297.938, 335.467 295.325 C 337.133 292.506, 337.549 292.346, 342.105 292.784 C 345.955 293.154, 348.079 292.707, 352.317 290.633 C 357.578 288.060, 370 276.379, 370 274.007 C 370 272.564, 365.950 273.359, 357.181 276.522 C 351.729 278.489, 350.956 278.575, 351.544 277.151 C 351.920 276.243, 352.447 274.737, 352.716 273.805 C 353.109 272.440, 353.556 272.330, 355.013 273.240 C 359.688 276.160, 371.223 268.903, 377.993 258.785 C 381.963 252.852, 382.078 252.482, 380.054 252.175 C 378.874 251.995, 374.892 253.354, 371.205 255.194 L 364.500 258.539 364.500 251.019 C 364.500 243.522, 362.104 236.101, 359.417 235.277 C 358.821 235.094, 357.471 237.769, 356.417 241.222 M 75.018 279.443 L 72.672 286.922 65.086 287.211 L 57.500 287.500 63.662 291.833 L 69.824 296.166 67.414 303.252 C 66.089 307.149, 65.147 310.480, 65.321 310.655 C 65.496 310.829, 68.383 308.975, 71.737 306.535 L 77.834 302.097 81.667 304.868 C 83.775 306.391, 86.726 308.438, 88.224 309.417 L 90.947 311.196 88.474 303.923 C 87.113 299.923, 86 296.532, 86 296.389 C 86 296.245, 88.771 294.186, 92.158 291.814 L 98.317 287.500 90.726 287.209 L 83.136 286.918 80.944 280.209 C 79.739 276.519, 78.440 273.154, 78.058 272.732 C 77.676 272.309, 76.308 275.329, 75.018 279.443 M 393.842 279 L 391.342 286.500 383.537 287 L 375.732 287.500 381.394 291.391 C 384.508 293.531, 387.266 295.621, 387.521 296.034 C 387.776 296.447, 387.089 299.592, 385.993 303.023 C 384.897 306.454, 384 309.657, 384 310.142 C 384 310.626, 386.773 309.005, 390.162 306.539 L 396.324 302.056 402.662 306.578 C 406.148 309.066, 409 310.699, 409 310.207 C 409 309.715, 408.100 306.697, 407 303.500 C 405.900 300.303, 405 297.313, 405 296.855 C 405 296.397, 407.790 293.993, 411.200 291.511 L 417.400 287 409.389 287 L 401.378 287 400.128 282.250 C 399.440 279.637, 398.307 276.150, 397.610 274.500 L 396.342 271.500 393.842 279 M 96.030 345.500 C 94.634 355.286, 93.233 361.998, 92.588 361.996 C 91.990 361.994, 84.563 359.969, 76.084 357.496 C 67.605 355.023, 60.054 353, 59.304 353 C 57.563 353, 65.849 365.474, 75.764 377.779 C 83.120 386.908, 104.462 408, 106.344 408 C 106.941 408, 107.093 402.598, 106.745 393.750 L 106.184 379.500 114.552 369.500 L 122.920 359.500 118.651 355 C 113.371 349.433, 108.619 343.383, 103.138 335.250 C 100.821 331.813, 98.804 329, 98.655 329 C 98.506 329, 97.325 336.425, 96.030 345.500 M 370.862 337.150 C 367.798 341.742, 363.113 347.975, 360.451 351 C 357.789 354.025, 354.980 357.259, 354.209 358.186 C 352.959 359.688, 353.702 360.931, 361.049 369.618 L 369.291 379.365 368.711 393.683 C 368.392 401.557, 368.494 408, 368.939 408 C 370.125 408, 381.593 397.769, 388.377 390.659 C 399.776 378.714, 417.935 354.602, 416.564 353.231 C 416.268 352.934, 408.594 354.861, 399.512 357.512 C 390.429 360.163, 382.719 362.053, 382.379 361.712 C 382.038 361.371, 380.687 354.209, 379.376 345.796 C 378.065 337.383, 376.866 330.117, 376.713 329.650 C 376.559 329.182, 373.926 332.557, 370.862 337.150 M 134.644 351.725 C 112.587 377.724, 112.079 378.390, 113.222 379.768 C 115.031 381.947, 134.033 394.368, 143.213 399.372 C 153.960 405.230, 173.702 413.071, 186 416.364 C 206.587 421.878, 211.832 422.492, 238 422.455 C 260.860 422.423, 263.370 422.236, 275.500 419.663 C 305.136 413.377, 331.813 401.740, 355.734 384.664 C 359.712 381.824, 362.975 379.158, 362.984 378.741 C 362.997 378.132, 339.234 349.288, 334.518 344.189 C 333.533 343.123, 331.493 344.106, 323.654 349.421 C 272.036 384.418, 205.185 384.696, 153 350.131 C 148.325 347.034, 143.957 344.152, 143.294 343.725 C 142.505 343.218, 139.517 345.981, 134.644 351.725 M 137.685 364.378 C 137.394 365.136, 137.618 366.218, 138.181 366.781 C 138.881 367.481, 138.064 369.849, 135.603 374.249 C 131.580 381.444, 131.332 382.530, 133.520 383.369 C 134.639 383.799, 136.015 381.981, 138.736 376.482 C 141.133 371.639, 142.959 369.098, 143.930 369.256 C 146.836 369.730, 146.215 366.162, 143.112 364.558 C 139.407 362.642, 138.365 362.607, 137.685 364.378 M 329.750 365.080 C 328.744 365.666, 328 367.287, 328 368.895 C 328 372.019, 329.729 373.779, 335.250 376.273 C 337.313 377.205, 339 378.650, 339 379.484 C 339 381.466, 338.019 381.408, 336.505 379.338 C 335.768 378.329, 334.625 377.930, 333.601 378.323 C 332.232 378.848, 332.123 379.361, 333.022 381.042 C 334.506 383.814, 336.617 384.495, 339.564 383.153 C 341.301 382.361, 342 381.240, 342 379.244 C 342 375.202, 339.716 372.531, 335.069 371.139 C 332.538 370.381, 331 369.321, 331 368.337 C 331 367.109, 331.307 367.010, 332.373 367.895 C 333.129 368.522, 334.470 368.757, 335.355 368.417 C 336.595 367.942, 336.730 367.364, 335.947 365.900 C 334.831 363.815, 332.461 363.501, 329.750 365.080 M 144.542 376.250 C 142.482 380.788, 140.569 385.063, 140.291 385.750 C 139.982 386.515, 140.606 387, 141.901 387 C 143.435 387, 144.455 385.902, 145.614 383.006 C 146.493 380.810, 147.611 379.260, 148.099 379.561 C 148.586 379.862, 148.048 381.945, 146.903 384.190 C 145.215 387.498, 145.075 388.432, 146.160 389.120 C 148.120 390.362, 148.703 390.202, 149.318 388.250 C 150.754 383.688, 152.702 379.257, 154.352 376.799 C 156.702 373.300, 155.767 370.463, 151.810 369.084 C 150.100 368.488, 148.608 368, 148.494 368 C 148.380 368, 146.601 371.712, 144.542 376.250 M 320.250 370.220 C 319.012 370.817, 318 371.608, 318 371.977 C 318 372.661, 325 389.213, 325.559 389.850 C 326.055 390.414, 333.001 387.910, 332.985 387.172 C 332.941 385.267, 331.035 383.773, 329.431 384.388 C 328.402 384.783, 327.319 384.530, 326.845 383.784 C 325.538 381.723, 325.874 380, 327.583 380 C 328.454 380, 328.968 379.438, 328.726 378.750 C 328.483 378.063, 327.440 377.580, 326.407 377.678 C 324.464 377.862, 323.042 376.425, 323.015 374.250 C 323.007 373.563, 323.723 373, 324.607 373 C 325.662 373, 326.005 372.456, 325.607 371.418 C 325.273 370.548, 325 369.648, 325 369.418 C 325 368.688, 322.579 369.097, 320.250 370.220 M 149.583 373.643 C 149.237 374.547, 149.159 375.492, 149.410 375.743 C 150.205 376.538, 152 374.942, 152 373.441 C 152 371.479, 150.361 371.617, 149.583 373.643 M 157.015 377.464 C 153.381 385.943, 152.564 389.770, 154.016 391.519 C 154.819 392.487, 156.509 392.985, 158.364 392.801 C 161.147 392.525, 161.662 391.840, 164.600 384.500 C 166.362 380.100, 167.596 376.163, 167.342 375.750 C 165.939 373.464, 163.915 375.790, 161.468 382.500 C 159.963 386.625, 158.342 390, 157.866 390 C 156.529 390, 156.799 388.580, 159.500 381.404 C 162.429 373.623, 162.500 373, 160.464 373 C 159.599 373, 158.094 374.948, 157.015 377.464 M 310.200 375.200 C 307.375 378.025, 309.113 382.507, 314 385 C 317.568 386.820, 320.072 390, 317.937 390 C 317.387 390, 316.678 389.325, 316.362 388.500 C 315.712 386.806, 313.429 386.498, 312.513 387.979 C 312.180 388.518, 312.408 389.894, 313.020 391.038 C 314.353 393.528, 319.709 393.442, 321.296 390.905 C 322.900 388.342, 321.212 384.023, 317.889 382.183 C 312.740 379.332, 311.461 378.203, 312.388 377.332 C 312.875 376.874, 313.459 377.015, 313.685 377.644 C 314.107 378.818, 318 378.312, 318 377.083 C 318 375.689, 315.534 374, 313.500 374 C 312.345 374, 310.860 374.540, 310.200 375.200 M 168.547 379.137 C 164.982 389.323, 163.241 395.637, 163.834 396.231 C 164.235 396.633, 165.946 397.239, 167.637 397.577 C 169.979 398.046, 170.867 397.789, 171.360 396.504 C 171.814 395.322, 171.389 394.653, 169.948 394.276 C 168.659 393.939, 168.095 393.194, 168.443 392.287 C 168.750 391.489, 169 390.648, 169 390.418 C 169 390.188, 169.900 390, 171 390 C 172.111 390, 173 389.333, 173 388.500 C 173 387.675, 172.367 387, 171.594 387 C 170.680 387, 170.370 386.300, 170.710 385 C 171.049 383.706, 172.074 383, 173.617 383 C 175.333 383, 176 382.441, 176 381 C 176 379.900, 175.438 378.994, 174.750 378.986 C 174.063 378.979, 172.493 378.703, 171.262 378.373 C 169.833 377.990, 168.852 378.266, 168.547 379.137 M 299.750 379.080 C 298.712 379.685, 298 381.294, 298 383.037 C 298 385.367, 298.811 386.487, 301.916 388.447 C 306.189 391.145, 307.574 392.759, 306.518 393.815 C 306.143 394.190, 305.228 393.665, 304.485 392.648 C 303.741 391.632, 302.653 391.096, 302.067 391.459 C 298.944 393.389, 303.057 398.054, 307 397.055 C 309.005 396.546, 309.560 395.704, 309.805 392.799 C 310.054 389.845, 309.630 388.837, 307.508 387.338 C 301.629 383.185, 300.538 382.134, 301.304 381.365 C 301.747 380.921, 302.481 381.160, 302.935 381.895 C 303.515 382.833, 304.273 382.947, 305.470 382.277 C 307.062 381.386, 307.065 381.208, 305.518 379.660 C 303.623 377.766, 302.245 377.627, 299.750 379.080 M 289.181 381.057 C 287.620 381.683, 287.026 382.561, 287.366 383.743 C 287.644 384.710, 288.412 388.988, 289.073 393.250 C 290.042 399.499, 290.613 401, 292.021 401 C 292.981 401, 294.052 399.988, 294.400 398.750 C 295.020 396.544, 295.062 396.538, 296.520 398.446 C 297.633 399.902, 298.294 400.106, 299.147 399.253 C 300.526 397.874, 294.441 379.961, 292.627 380.063 C 292.007 380.098, 290.456 380.545, 289.181 381.057 M 183.312 391.250 C 180.987 401.535, 181.218 402.192, 187 401.761 C 190.115 401.529, 190.643 401.062, 191.801 397.514 C 192.517 395.322, 193.375 391.542, 193.708 389.115 C 194.392 384.120, 192.695 382, 188.010 382 C 185.539 382, 185.294 382.483, 183.312 391.250 M 359.804 386.438 C 356.670 388.672, 354.083 390.871, 354.054 391.323 C 354.024 391.776, 356.363 395.022, 359.250 398.537 L 364.500 404.926 365.283 398.213 C 365.714 394.521, 365.939 389.447, 365.783 386.938 L 365.500 382.375 359.804 386.438 M 109.822 394.237 L 110.144 405.500 114.093 401 C 116.265 398.525, 118.933 395.305, 120.022 393.844 L 122.002 391.189 116.902 387.525 C 114.097 385.510, 111.284 383.662, 110.651 383.417 C 109.813 383.094, 109.588 386.039, 109.822 394.237 M 277.227 384.839 C 276.203 385.489, 276.251 387.101, 277.474 393.073 C 279.841 404.640, 279.945 404.953, 281.260 404.548 C 281.942 404.339, 283.722 403.900, 285.215 403.573 C 287.116 403.157, 287.755 402.524, 287.346 401.460 C 286.992 400.537, 286.060 400.164, 284.971 400.509 C 283.453 400.991, 282.935 400.008, 281.589 394.092 C 280.715 390.249, 280 386.407, 280 385.553 C 280 383.835, 279.153 383.617, 277.227 384.839 M 188.705 386 C 187.927 388.215, 186 396.720, 186 397.943 C 186 398.524, 186.389 399, 186.863 399 C 187.942 399, 190.412 387.680, 189.732 385.848 C 189.335 384.776, 189.125 384.808, 188.705 386 M 195.073 392.750 C 194.412 397.012, 193.663 401.232, 193.408 402.126 C 193.116 403.148, 193.681 403.945, 194.927 404.271 C 196.619 404.713, 197.006 404.145, 197.568 400.394 C 197.931 397.978, 198.654 396, 199.175 396 C 199.731 396, 199.844 397.857, 199.448 400.500 C 198.888 404.234, 199.044 405, 200.367 405 C 201.244 405, 202.203 403.988, 202.498 402.750 C 203.015 400.582, 203.287 399.037, 204.629 390.635 C 205.336 386.202, 204.252 385.039, 199.387 385.015 L 196.274 385 195.073 392.750 M 291.358 386.750 C 291.629 387.712, 292.146 389.966, 292.507 391.759 C 292.868 393.551, 293.546 394.781, 294.015 394.491 C 294.836 393.984, 292.303 385, 291.339 385 C 291.078 385, 291.087 385.788, 291.358 386.750 M 208.461 387.439 C 207.944 389.092, 205.968 405.302, 206.249 405.577 C 206.387 405.711, 208.188 406.137, 210.250 406.522 C 213.564 407.141, 214 406.991, 214 405.228 C 214 404.096, 213.162 403.014, 212.065 402.727 C 209.522 402.062, 210.426 398, 213.117 398 C 214.152 398, 215 397.325, 215 396.500 C 215 395.641, 214.099 395, 212.893 395 C 211.383 395, 210.958 394.552, 211.393 393.418 C 211.727 392.548, 212 391.648, 212 391.418 C 212 391.188, 212.900 391, 214 391 C 215.295 391, 216 390.333, 216 389.109 C 216 387.683, 215.115 387.116, 212.396 386.798 C 210.364 386.561, 208.648 386.840, 208.461 387.439 M 267.533 387.352 C 265.933 388.522, 265.767 389.603, 266.303 395.347 C 267.059 403.437, 268.300 406, 271.464 406 C 274.959 406, 277.286 403.274, 276.491 400.108 C 275.678 396.868, 275.430 396.621, 273.667 397.298 C 272.749 397.650, 272.422 398.755, 272.740 400.421 C 273.345 403.583, 271.429 403.889, 270.680 400.750 C 269.203 394.558, 268.828 389, 269.886 389 C 270.499 389, 271 389.825, 271 390.833 C 271 393.193, 271.841 393.998, 273.598 393.324 C 275.469 392.606, 275.378 389.521, 273.429 387.571 C 271.502 385.645, 269.947 385.587, 267.533 387.352 M 199.605 389.588 C 198.755 391.803, 198.852 393, 199.883 393 C 201.061 393, 202.031 389.137, 201.011 388.507 C 200.570 388.234, 199.937 388.721, 199.605 389.588 M 219.546 390.250 C 218.515 394.957, 217 404.442, 217 406.184 C 217 408.372, 219.551 408.612, 220.362 406.500 C 221.087 404.611, 223 404.533, 223 406.393 C 223 408.019, 225.690 409.311, 226.464 408.058 C 226.755 407.588, 226.704 403.143, 226.352 398.180 C 225.781 390.131, 225.485 389.097, 223.606 388.593 C 220.362 387.722, 220.073 387.840, 219.546 390.250 M 248.667 388.667 C 246.873 390.460, 248.128 395.748, 251 398.500 C 253.968 401.344, 254.934 404, 253 404 C 252.450 404, 252 403.325, 252 402.500 C 252 401.667, 251.111 401, 250 401 C 247.771 401, 247.491 402.181, 249.035 405.066 C 251.288 409.275, 258 406.656, 258 401.569 C 258 400.709, 256.362 398.193, 254.360 395.976 C 252.358 393.760, 251.069 391.622, 251.497 391.224 C 251.924 390.826, 252.475 391.063, 252.720 391.750 C 253.153 392.961, 257 393.576, 257 392.434 C 257 392.123, 256.534 390.998, 255.965 389.934 C 254.954 388.045, 250.126 387.207, 248.667 388.667 M 230 399 C 230 407.222, 230.267 409, 231.500 409 C 232.665 409, 233.018 407.604, 233.079 402.750 C 233.162 396.174, 234.114 397.193, 235.475 405.312 C 235.953 408.164, 236.538 409.043, 237.795 408.801 C 238.998 408.569, 239.697 406.937, 240.256 403.054 C 241.331 395.583, 242 395.498, 242 402.833 C 242 407.648, 242.329 409, 243.500 409 C 244.733 409, 245 407.222, 245 399 L 245 389 242.162 389 C 239.485 389, 239.269 389.327, 238.360 394.750 L 237.396 400.500 236.583 394.750 C 235.807 389.267, 235.636 389, 232.885 389 L 230 389 230 399 M 221.814 396.981 C 221.150 401.323, 221.401 402.932, 222.563 401.771 C 222.872 401.461, 222.985 399.249, 222.813 396.854 L 222.500 392.500 221.814 396.981" stroke="none" fill="#f1f4f5" fill-rule="evenodd"/><path d="M 0 235.502 L 0 471.004 234.250 470.752 L 468.500 470.500 468.752 235.250 L 469.004 0 234.502 0 L 0 0 0 235.502 M 0.492 236 C 0.492 365.525, 0.608 418.512, 0.750 353.750 C 0.892 288.987, 0.892 183.012, 0.750 118.250 C 0.608 53.487, 0.492 106.475, 0.492 236 M 190.018 43.077 C 184.450 45.603, 182 47.765, 182 50.155 C 182 52.353, 183.886 52.492, 188.355 50.625 C 191.939 49.128, 199 43.338, 199 41.896 C 199 40.380, 194.726 40.941, 190.018 43.077 M 279.103 45.328 C 283.456 49.588, 291.151 53.182, 292.669 51.664 C 293.030 51.304, 292.838 49.939, 292.242 48.632 C 290.982 45.866, 283.846 42.137, 278.332 41.363 L 274.500 40.825 279.103 45.328 M 177.991 44.831 C 172.354 48.455, 169.337 51.740, 168.483 55.182 C 167.872 57.645, 168.150 57.965, 171.891 59.086 C 175.327 60.115, 176.988 60.029, 182.494 58.539 C 186.085 57.567, 189.254 56.397, 189.537 55.940 C 190.102 55.026, 183.783 53.014, 180.320 53.006 L 178.141 53 180.655 48.502 C 182.037 46.029, 183.014 43.541, 182.825 42.974 C 182.636 42.407, 180.460 43.243, 177.991 44.831 M 292 44.040 C 292 44.612, 292.888 46.821, 293.974 48.950 L 295.949 52.819 291.176 53.476 C 284.351 54.414, 282.813 55.593, 286.534 57.032 C 288.165 57.663, 291.975 58.635, 295 59.191 C 308.112 61.604, 310.020 53.839, 298.234 46.032 C 293.363 42.805, 292 42.370, 292 44.040 M 162.395 52.965 C 157.808 56.474, 154 61.899, 154 64.926 C 154 66.793, 159.228 68.210, 163.841 67.594 C 169.392 66.852, 177.340 63.359, 176.515 62.024 C 176.167 61.461, 173.234 61, 169.997 61 L 164.112 61 166.122 56.458 C 169.264 49.353, 168.299 48.449, 162.395 52.965 M 306.960 52.861 C 307.411 54.434, 308.280 56.654, 308.890 57.795 C 310.551 60.899, 310.423 60.999, 304.750 61.015 C 296.905 61.038, 295.543 62.447, 301.073 64.817 C 307.458 67.554, 311.448 68.269, 316.022 67.496 C 319.618 66.889, 320 66.538, 320 63.847 C 320 61.576, 318.711 59.581, 314.565 55.435 C 308.379 49.248, 305.660 48.328, 306.960 52.861 M 147.092 63.003 C 142.354 67.741, 140.088 72.764, 141.193 76.078 C 142.226 79.177, 154.933 77.242, 161.943 72.919 C 165.058 70.997, 165.211 70.698, 163.557 69.772 C 162.551 69.209, 159.314 68.997, 156.364 69.302 C 153.414 69.606, 151 69.730, 151 69.577 C 151 69.424, 151.413 67.994, 151.917 66.399 C 153.636 60.968, 154.042 58, 153.067 58 C 152.532 58, 149.844 60.251, 147.092 63.003 M 321.044 60.250 C 321.068 61.487, 321.686 64.175, 322.416 66.221 L 323.745 69.943 318.012 69.343 C 314.652 68.992, 311.497 69.183, 310.390 69.805 C 308.744 70.729, 309.400 71.287, 315.471 74.130 C 320.135 76.315, 324.190 77.465, 327.725 77.605 C 332.482 77.794, 333.066 77.587, 333.584 75.523 C 334.379 72.355, 331.005 66.141, 326.070 61.682 C 323.828 59.657, 321.771 58, 321.497 58 C 321.224 58, 321.020 59.013, 321.044 60.250 M 335 71.060 C 335 72.959, 335.430 76.013, 335.956 77.847 C 336.803 80.799, 336.717 81.096, 335.206 80.443 C 334.268 80.038, 330.575 79.492, 327 79.229 L 320.500 78.752 322.427 80.901 C 325.320 84.126, 335.899 88.850, 341 89.195 L 345.500 89.500 345.806 85.820 C 346.183 81.293, 343.471 75.744, 338.588 71.054 L 335 67.608 335 71.060 M 134.541 72.134 C 128.939 78.792, 126.353 86.864, 129.249 88.654 C 130.798 89.611, 135.383 89.241, 139.989 87.788 C 144.481 86.370, 153 81.137, 153 79.794 C 153 78.644, 142.744 79.195, 139.635 80.512 C 138.118 81.155, 137.871 80.947, 138.312 79.401 C 138.610 78.356, 139.151 75.588, 139.515 73.250 C 140.342 67.934, 138.435 67.506, 134.541 72.134 M 121.858 84.383 C 118.288 89.432, 116.201 94.188, 116.076 97.559 C 115.965 100.554, 118.386 103.449, 120.366 102.690 C 121.276 102.341, 122.235 102.023, 122.497 101.983 C 128.429 101.097, 142 93.311, 142 90.795 C 142 89.443, 134.129 89.919, 130.346 91.500 C 128.371 92.325, 126.607 93, 126.425 93 C 126.243 93, 126.354 90.809, 126.671 88.132 C 126.988 85.455, 126.790 82.448, 126.232 81.450 C 125.331 79.840, 124.837 80.171, 121.858 84.383 M 348 86.500 C 348 90.075, 347.830 93, 347.622 93 C 347.414 93, 345.629 92.325, 343.654 91.500 C 341.680 90.675, 338.137 90.019, 335.782 90.042 L 331.500 90.083 335.500 93.634 C 340.361 97.949, 344.912 100.316, 351.408 101.906 C 356.992 103.274, 357.965 102.620, 357.975 97.500 C 357.984 92.690, 351.085 80, 348.461 80 C 348.207 80, 348 82.925, 348 86.500 M 109.078 100.160 C 105.712 106.895, 105.053 113.323, 107.399 116.532 C 108.566 118.127, 109.190 118.259, 111.149 117.328 C 112.442 116.713, 116.047 115.024, 119.161 113.575 C 122.274 112.126, 126.541 109.041, 128.644 106.720 L 132.466 102.500 129.265 102.189 C 126.610 101.931, 122.471 103.338, 115.750 106.782 C 115.338 106.994, 115 104.916, 115 102.165 C 115 96.833, 114.296 94, 112.971 94 C 112.523 94, 110.771 96.772, 109.078 100.160 M 293.997 97.509 C 292.314 102.609, 290.477 104, 285.429 104 C 282.993 104, 281 104.319, 281 104.708 C 281 105.097, 282.621 107.076, 284.603 109.105 C 288.152 112.740, 288.190 112.867, 287.173 117.635 C 286.606 120.297, 286.280 122.613, 286.450 122.783 C 286.619 122.953, 288.838 122.081, 291.379 120.846 L 296 118.601 300.397 120.737 C 302.815 121.912, 305.007 122.660, 305.267 122.399 C 305.528 122.138, 305.295 119.830, 304.748 117.269 C 303.773 112.693, 303.818 112.555, 307.378 109.293 C 309.370 107.467, 311 105.529, 311 104.987 C 311 104.444, 309.045 104, 306.655 104 C 301.887 104, 300.187 102.668, 298.043 97.250 C 296.396 93.087, 295.436 93.148, 293.997 97.509 M 359.633 97.086 C 359.285 98.826, 359 101.748, 359 103.579 L 359 106.908 353.750 104.464 C 350.863 103.119, 346.925 102.031, 345 102.045 L 341.500 102.070 347.726 107.988 C 351.898 111.952, 355.363 114.307, 358.226 115.121 C 360.577 115.790, 362.928 116.711, 363.450 117.169 C 366.481 119.821, 369.409 114.407, 368.389 108.034 C 367.727 103.890, 363.113 94.832, 361.383 94.279 C 360.768 94.083, 359.981 95.346, 359.633 97.086 M 209.393 107.828 C 207.855 109.114, 207.405 110.400, 207.727 112.594 C 208.114 115.233, 208.568 115.600, 211.440 115.600 C 214.169 115.600, 214.904 115.094, 215.863 112.552 C 216.630 110.520, 216.672 109.391, 215.989 109.163 C 215.425 108.975, 214.329 108.187, 213.554 107.411 C 211.830 105.687, 211.971 105.673, 209.393 107.828 M 99.870 113.131 C 96.837 118.913, 96.512 130.950, 99.315 133.712 C 101.059 135.431, 101.201 135.413, 102.975 133.250 C 103.990 132.012, 105.423 130.998, 106.160 130.995 C 108.762 130.985, 115.072 126.377, 119.012 121.609 C 123.420 116.274, 123.854 114.995, 121.250 115.010 C 118.710 115.024, 109.746 119.385, 108.055 121.429 C 106.746 123.011, 106.489 122.585, 105.332 116.916 C 103.614 108.491, 102.653 107.825, 99.870 113.131 M 370.139 112.750 C 369.623 114.813, 368.917 117.758, 368.570 119.296 L 367.939 122.093 365.035 120.025 C 361.990 117.857, 354.760 115, 352.318 115 C 348.275 115, 361.507 129.374, 366.664 130.584 C 368.224 130.951, 370.268 132.206, 371.206 133.375 L 372.912 135.500 375.189 133.239 C 377.046 131.395, 377.458 129.919, 377.422 125.239 C 377.378 119.595, 373.785 109, 371.915 109 C 371.454 109, 370.655 110.688, 370.139 112.750 M 247.923 115.923 C 240.815 123.031, 247.864 134.180, 257.463 131.012 C 260.133 130.131, 261.432 128.901, 262.571 126.177 C 264.424 121.741, 263.768 118.617, 260.314 115.415 C 256.589 111.963, 251.682 112.164, 247.923 115.923 M 91.536 129.260 C 87.949 137.845, 89.032 148.617, 93.800 151.783 C 95.767 153.089, 96.041 153.004, 97.056 150.776 C 97.666 149.437, 99.688 147.791, 101.550 147.118 C 105.252 145.779, 110.222 140.509, 113.822 134.102 C 115.767 130.642, 115.878 130, 114.532 130 C 111.586 130, 105.528 133.074, 102.282 136.216 C 99.943 138.479, 98.949 138.944, 98.642 137.915 C 97.106 132.762, 94.697 126.931, 93.900 126.438 C 93.382 126.118, 92.318 127.388, 91.536 129.260 M 379.720 128.081 C 378.869 129.412, 377.609 132.425, 376.920 134.778 L 375.667 139.055 373.083 136.630 C 368.257 132.099, 359 128.270, 359 130.804 C 359 134.075, 369.632 146.456, 373.429 147.606 C 374.568 147.951, 376.405 149.337, 377.511 150.686 L 379.522 153.138 382.011 150.486 C 384.248 148.102, 384.498 147.006, 384.480 139.667 C 384.466 134.107, 383.950 130.568, 382.863 128.581 L 381.267 125.662 379.720 128.081 M 273 129.574 C 263.277 133.728, 253.931 135.295, 241.844 134.797 L 230.902 134.346 233.641 136.531 C 235.148 137.732, 238.794 139.535, 241.743 140.538 C 244.692 141.540, 247.323 142.714, 247.590 143.146 C 248.537 144.678, 243.897 152.054, 239.349 156.246 C 233.470 161.666, 228.089 164.864, 221.070 167.110 L 215.500 168.892 220.263 168.946 C 224.752 168.997, 234.746 166.641, 241.559 163.925 C 243.395 163.193, 246.093 162.982, 248.309 163.398 C 251.492 163.995, 252 164.466, 252 166.817 C 252 168.316, 251.131 172.677, 250.069 176.507 C 249.007 180.337, 248.269 183.602, 248.429 183.762 C 248.969 184.302, 257.370 172.607, 259.726 168.035 C 262.570 162.519, 265 151.727, 265 144.619 C 265 139.605, 265.169 139.270, 268.750 137.192 C 273.784 134.272, 281.879 127.039, 280 127.142 C 279.175 127.187, 276.025 128.281, 273 129.574 M 216.316 141.084 C 214.513 142.887, 215.970 146, 218.617 146 C 220.464 146, 221 145.462, 221 143.607 C 221 142.291, 220.288 140.941, 219.418 140.607 C 217.413 139.838, 217.589 139.811, 216.316 141.084 M 385.559 147.906 C 384.104 150.211, 382.497 153.193, 381.988 154.532 C 381.063 156.964, 381.057 156.961, 376.254 152.159 C 371.028 146.933, 365 143.945, 365 146.581 C 365 151.421, 375.536 166, 379.035 166 C 379.566 166, 380 166.589, 380 167.309 C 380 168.029, 380.588 169.423, 381.308 170.406 C 382.542 172.095, 382.788 172.049, 385.709 169.591 C 389.552 166.358, 391.502 159.176, 390.568 151.699 C 389.567 143.685, 388.658 142.997, 385.559 147.906 M 84.641 147.209 C 82.127 156.592, 85.925 170.500, 91 170.500 C 92.831 170.500, 93.585 169.898, 93.820 168.250 C 93.995 167.012, 94.748 166, 95.493 166 C 98.303 166, 103.092 160.594, 106.639 153.417 C 108.660 149.327, 110.049 145.715, 109.724 145.391 C 108.632 144.299, 98.782 150.419, 96.215 153.784 L 93.671 157.120 90.586 151.371 C 87.133 144.938, 85.547 143.828, 84.641 147.209 M 184.638 146.500 C 184.322 147.325, 183.416 148, 182.625 148 C 181.451 148, 181.400 148.456, 182.344 150.492 C 183.874 153.791, 188.252 153.938, 189.709 150.740 C 190.564 148.862, 190.348 148.187, 188.431 146.740 C 185.621 144.621, 185.366 144.605, 184.638 146.500 M 289.162 147.544 C 288.511 148.973, 287.198 150, 286.021 150 C 283.895 150, 283.302 151.451, 285 152.500 C 285.550 152.840, 286 153.916, 286 154.892 C 286 156.329, 286.858 156.667, 290.514 156.667 C 294.324 156.667, 294.944 156.399, 294.485 154.952 C 294.164 153.942, 294.570 152.995, 295.470 152.650 C 297.400 151.909, 297.474 150, 295.573 150 C 294.787 150, 293.276 148.895, 292.213 147.544 L 290.281 145.088 289.162 147.544 M 100.307 164.892 C 95.784 168.169, 92 172.607, 92 174.635 C 92 176.889, 90.540 176.185, 88.678 173.032 C 85.876 168.289, 81.896 163.946, 80.909 164.556 C 79.496 165.429, 79.838 175.092, 81.476 180.609 C 83.922 188.844, 91.947 194.338, 92.803 188.363 C 92.970 187.199, 95.085 184.182, 97.502 181.659 C 100.744 178.275, 102.436 175.330, 103.949 170.431 C 106.991 160.581, 106.755 160.222, 100.307 164.892 M 369.126 166.250 C 370.506 172.674, 375.167 181.196, 378.545 183.472 C 381.798 185.665, 382 185.988, 382 189 C 382 192.006, 385.712 191.519, 388.912 188.094 C 392.437 184.321, 394 178.902, 394 170.460 L 394 163.651 391.375 166.076 C 389.931 167.409, 387.517 170.460, 386.010 172.856 C 383.422 176.970, 383.237 177.080, 382.673 174.835 C 381.749 171.152, 371.917 162.022, 368.856 162.004 C 368.502 162.002, 368.624 163.912, 369.126 166.250 M 177.180 168.283 C 174.999 170.911, 173.187 182.966, 172.045 202.446 C 171.435 212.866, 170.299 224.341, 169.521 227.946 C 166.161 243.516, 164.893 251.879, 165.186 256.529 L 165.500 261.500 173 261.722 C 177.125 261.844, 186.575 262.662, 194 263.540 C 224.616 267.158, 223.264 266.737, 222.768 272.500 L 222.510 275.500 229.436 275.268 C 237.880 274.984, 242.362 273.600, 245.382 270.344 C 246.953 268.650, 250.474 267.121, 256.586 265.480 C 261.489 264.164, 267.975 262.363, 271 261.478 C 274.025 260.592, 280.550 258.811, 285.500 257.520 C 307.317 251.827, 310.771 250.884, 315.362 249.369 L 320.223 247.765 319.694 242.133 C 318.943 234.129, 316.156 211.103, 314.916 202.653 C 313.465 192.768, 310 168.599, 310 168.368 C 310 168.264, 306.962 169.280, 303.250 170.627 C 299.538 171.974, 291.775 173.714, 286 174.494 C 275.679 175.888, 268.392 178.119, 256.500 183.526 C 246.571 188.041, 246.341 188.046, 237.390 183.940 C 232.930 181.894, 227.755 179.894, 225.890 179.494 C 224.026 179.095, 220.700 178.194, 218.500 177.493 C 216.300 176.792, 209.775 174.793, 204 173.052 C 198.225 171.310, 192.129 169.465, 190.453 168.951 C 184.063 166.993, 178.484 166.712, 177.180 168.283 M 98.134 183.866 C 96.007 185.993, 93.475 189.807, 92.507 192.343 L 90.746 196.955 87.457 192.647 C 83.831 187.898, 79.404 184.537, 78.565 185.895 C 77.590 187.472, 80.129 198.320, 82.625 203.246 C 85.228 208.384, 90.305 212.345, 93.329 211.598 C 94.642 211.274, 94.995 211.572, 94.579 212.655 C 94.261 213.485, 94 214.800, 94 215.578 C 94 216.411, 91.455 214.941, 87.800 211.996 C 84.390 209.248, 81.183 207, 80.672 207 C 78.982 207, 81.021 215.260, 84.170 221.168 C 87.641 227.680, 92.883 232.251, 97.051 232.400 C 99.299 232.481, 99.921 233.035, 100.248 235.250 C 100.741 238.591, 100.666 238.599, 96.683 235.614 C 92.795 232.700, 84.972 228.695, 84.361 229.306 C 83.307 230.360, 89.183 241.243, 93.101 245.493 C 98.161 250.983, 100.181 252.204, 105.430 252.945 C 108.649 253.400, 109.491 253.991, 110.085 256.219 L 110.810 258.938 105.726 256.361 C 98.223 252.559, 93 250.854, 93 252.207 C 93 254.428, 99.316 263.098, 104.004 267.314 C 109.076 271.874, 115.405 274.438, 119.224 273.480 C 121.118 273.005, 121.734 273.457, 122.708 276.037 C 123.768 278.846, 123.715 279.098, 122.196 278.458 C 116.061 275.875, 110.985 274.167, 107.656 273.567 L 103.813 272.874 105.656 276.043 C 108.303 280.591, 117.072 288.344, 122.407 290.851 C 126.954 292.988, 135.529 293.789, 136.167 292.136 C 136.350 291.661, 137.528 292.840, 138.784 294.756 C 140.743 297.745, 140.814 298.139, 139.284 297.529 C 135.783 296.135, 120.923 293.744, 120.218 294.462 C 118.980 295.722, 129.715 304.734, 136.338 307.995 C 143.452 311.497, 152.505 312.383, 154.442 309.766 C 155.320 308.580, 156.034 308.861, 158.642 311.418 L 161.785 314.500 150.779 314.159 C 142.389 313.898, 139.870 314.110, 140.183 315.048 C 140.832 316.997, 152.258 323.493, 158.476 325.449 C 164.865 327.458, 174.794 327.245, 177.449 325.042 C 178.925 323.818, 178.879 323.501, 176.935 321.430 C 175.762 320.182, 173.609 318.667, 172.151 318.062 C 169.879 317.121, 169.487 316.337, 169.407 312.587 C 169.347 309.794, 168.357 306.578, 166.671 303.701 C 163.893 298.961, 154.358 288, 153.013 288 C 150.992 288, 151.388 298.702, 153.622 304.475 C 154.324 306.287, 154.145 306.259, 151.445 304.135 C 148.718 301.990, 148.526 301.408, 148.820 296.161 C 149.093 291.304, 148.634 289.505, 145.595 283.500 C 143.646 279.650, 140.951 275.150, 139.606 273.500 L 137.161 270.500 136.008 273.500 C 135.374 275.150, 135 279.291, 135.178 282.702 L 135.500 288.904 132.794 286.307 C 130.324 283.936, 130.215 283.531, 131.544 281.633 C 132.345 280.490, 133 277.701, 133 275.434 C 133 269.080, 127.317 254, 124.923 254 C 123.235 254, 121 260.610, 121 265.603 L 121 270.270 118.954 267.669 C 117.025 265.217, 117.003 264.926, 118.554 262.557 C 120.688 259.301, 120.714 249.927, 118.609 242.850 C 116.299 235.081, 115.454 234.025, 113.534 236.505 C 112.685 237.602, 111.244 241.084, 110.333 244.242 C 108.800 249.556, 108.591 249.817, 107.529 247.742 C 106.582 245.890, 106.741 245.005, 108.441 242.660 C 110.202 240.230, 110.497 238.350, 110.479 229.660 C 110.467 224.072, 109.969 218.658, 109.372 217.629 C 108.369 215.902, 108.076 216.033, 105.546 219.351 C 104.039 221.327, 102.236 224.869, 101.540 227.222 L 100.274 231.500 99.542 228.180 C 98.996 225.703, 99.207 224.560, 100.373 223.680 C 103.943 220.983, 107.164 206.772, 105.608 200.574 C 105.059 198.388, 104.643 198.121, 103.085 198.954 C 102.059 199.503, 99.872 201.987, 98.226 204.473 C 95.668 208.335, 95.155 208.701, 94.706 206.984 C 94.353 205.635, 94.840 204.621, 96.185 203.901 C 99.106 202.338, 103.117 192.801, 103.739 185.941 C 104.388 178.790, 103.528 178.472, 98.134 183.866 M 370 181.951 C 370 188.955, 374.031 199.912, 377.894 203.405 C 379.197 204.584, 379.985 206.490, 379.961 208.405 L 379.922 211.500 378.582 208.422 C 377.077 204.966, 371.272 198, 369.896 198 C 368.664 198, 368.775 211.649, 370.044 216.219 C 370.612 218.264, 372.087 221.189, 373.321 222.719 C 374.603 224.307, 375.413 226.471, 375.211 227.765 C 374.811 230.325, 373 229.814, 373 227.141 C 373 224.797, 367.865 217, 366.322 217 C 364.685 217, 363.569 222.866, 363.531 231.666 C 363.505 237.590, 363.896 239.368, 365.783 241.920 C 367.571 244.339, 367.842 245.427, 367.033 246.938 C 366.465 248, 366 249.798, 366 250.934 C 366 254.206, 371.745 253.692, 376.899 249.958 C 382.878 245.627, 391.686 231.353, 389.642 229.308 C 389.048 228.715, 383.612 231.521, 378.250 235.189 L 374 238.096 374.015 234.298 C 374.026 231.768, 374.320 230.956, 374.896 231.867 C 375.598 232.975, 376.438 233.011, 379.331 232.056 C 383.272 230.755, 387.966 225.947, 390.890 220.217 C 393.056 215.970, 395.370 208.036, 394.651 207.318 C 393.813 206.480, 389.780 209.125, 384.812 213.773 L 380 218.274 380 215.137 C 380 212.685, 380.429 212, 381.965 212 C 385.036 212, 390.537 206.504, 392.851 201.124 C 395.301 195.430, 396.834 185, 395.222 185 C 394.642 185, 391.655 187.777, 388.584 191.170 C 385.054 195.071, 383 196.712, 383 195.631 C 383 192.675, 379.262 186.437, 375.524 183.155 C 371.375 179.512, 370 179.212, 370 181.951 M 356.417 241.222 C 353.958 249.274, 353.843 260.064, 356.186 262.654 C 357.770 264.403, 357.764 264.661, 356.089 266.882 L 354.306 269.246 353.675 264.643 C 352.889 258.909, 350.349 252.666, 349.114 253.430 C 348.603 253.745, 346.748 257.455, 344.992 261.673 C 341.554 269.933, 340.512 279.502, 342.756 282.207 C 343.748 283.401, 343.502 284.119, 341.441 286.056 L 338.907 288.436 339.548 284.426 C 340.203 280.331, 338.573 272, 337.116 272 C 335.731 272, 333.338 275.243, 329.369 282.500 C 326.108 288.462, 325.530 290.444, 325.471 295.865 C 325.411 301.517, 325.114 302.442, 322.820 304.112 L 320.238 305.994 321.575 302.247 C 323.190 297.720, 323.410 289.371, 321.937 288.461 C 320.564 287.613, 317.827 290.112, 312.336 297.229 C 306.922 304.246, 304.703 309.334, 305.201 313.595 C 305.532 316.433, 305.171 317.025, 302.255 318.415 C 300.428 319.287, 298.754 320, 298.536 320 C 298.319 320, 299.191 318.087, 300.474 315.750 C 303.122 310.925, 304.641 303.514, 303.168 302.604 C 301.842 301.784, 290.976 310.084, 286.055 315.675 C 282.201 320.053, 280.082 325.706, 281.460 327.935 C 281.830 328.535, 281.327 329.019, 280.309 329.044 C 279.314 329.068, 276.800 329.694, 274.723 330.435 L 270.945 331.783 274.817 327.583 C 278.434 323.658, 282.912 314.579, 281.786 313.453 C 280.940 312.607, 272.264 316.732, 264.989 321.439 C 256.916 326.661, 251.958 333.040, 254.031 335.537 C 254.940 336.633, 256.227 336.900, 258.409 336.447 C 261.371 335.832, 261.416 335.872, 259.500 337.390 C 256.346 339.888, 242.383 344, 237.054 344 C 231.663 344, 221.359 341.027, 216 337.926 C 212.876 336.118, 212.787 335.959, 215.171 336.449 C 227.499 338.983, 218.627 325.687, 202.347 317.234 C 197.863 314.905, 193.926 313, 193.597 313 C 191.110 313, 194.894 322.338, 199.702 328.066 C 202.043 330.855, 202.174 331.273, 200.500 330.629 C 199.400 330.206, 197.270 329.612, 195.766 329.308 C 194.263 329.005, 193.284 328.350, 193.590 327.854 C 194.940 325.671, 192.411 320.477, 187.322 314.981 C 182.329 309.588, 173.148 302, 171.616 302 C 170.110 302, 171.235 309.955, 173.383 314.500 C 175.640 319.274, 178.916 322.976, 183.694 326.151 C 185.734 327.508, 185.221 327.694, 176.335 328.816 C 164.563 330.303, 162.896 331.047, 166.316 333.287 C 175.627 339.388, 195.105 341.506, 202.376 337.209 C 205.804 335.183, 206.440 335.088, 207.876 336.382 C 209.951 338.253, 223.955 344.977, 225.972 345.071 C 226.812 345.110, 224.730 345.935, 221.345 346.904 C 214.619 348.829, 205.850 353.009, 202.141 356.058 C 200.377 357.508, 199.938 358.616, 200.399 360.453 C 201.014 362.905, 201.025 362.901, 207.384 358.088 C 225.333 344.502, 252.341 344.985, 268.467 359.180 C 272.999 363.169, 273.002 363.170, 273.890 360.836 C 274.515 359.193, 274.360 358.024, 273.367 356.897 C 271.071 354.288, 262.061 349.787, 254.540 347.490 L 247.528 345.349 252.514 343.655 C 255.256 342.724, 260.077 340.374, 263.227 338.434 L 268.954 334.906 271.795 337.006 C 277.856 341.488, 293.596 340.261, 306 334.341 L 311.500 331.716 307.362 330.454 C 305.085 329.760, 299.768 328.868, 295.546 328.472 L 287.869 327.753 291.619 325.490 C 294.815 323.561, 295.574 323.431, 296.755 324.612 C 300.831 328.688, 312.405 327.613, 323.468 322.131 C 327.939 319.915, 332.432 317.180, 333.453 316.051 C 335.284 314.028, 335.270 313.999, 332.405 313.921 C 325.896 313.745, 316.351 314.159, 314.059 314.718 C 311.816 315.264, 311.889 315.071, 314.961 312.326 C 318.073 309.545, 318.540 309.421, 321.745 310.523 C 328.329 312.787, 338.118 309.450, 348.250 301.489 C 355.564 295.742, 355.869 293.621, 349.250 294.530 C 344.396 295.197, 338.132 296.628, 335.283 297.722 C 333.899 298.253, 333.924 297.938, 335.467 295.325 C 337.133 292.506, 337.549 292.346, 342.105 292.784 C 345.955 293.154, 348.079 292.707, 352.317 290.633 C 357.578 288.060, 370 276.379, 370 274.007 C 370 272.564, 365.950 273.359, 357.181 276.522 C 351.729 278.489, 350.956 278.575, 351.544 277.151 C 351.920 276.243, 352.447 274.737, 352.716 273.805 C 353.109 272.440, 353.556 272.330, 355.013 273.240 C 359.688 276.160, 371.223 268.903, 377.993 258.785 C 381.963 252.852, 382.078 252.482, 380.054 252.175 C 378.874 251.995, 374.892 253.354, 371.205 255.194 L 364.500 258.539 364.500 251.019 C 364.500 243.522, 362.104 236.101, 359.417 235.277 C 358.821 235.094, 357.471 237.769, 356.417 241.222 M 75.018 279.443 L 72.672 286.922 65.086 287.211 L 57.500 287.500 63.662 291.833 L 69.824 296.166 67.414 303.252 C 66.089 307.149, 65.147 310.480, 65.321 310.655 C 65.496 310.829, 68.383 308.975, 71.737 306.535 L 77.834 302.097 81.667 304.868 C 83.775 306.391, 86.726 308.438, 88.224 309.417 L 90.947 311.196 88.474 303.923 C 87.113 299.923, 86 296.532, 86 296.389 C 86 296.245, 88.771 294.186, 92.158 291.814 L 98.317 287.500 90.726 287.209 L 83.136 286.918 80.944 280.209 C 79.739 276.519, 78.440 273.154, 78.058 272.732 C 77.676 272.309, 76.308 275.329, 75.018 279.443 M 393.842 279 L 391.342 286.500 383.537 287 L 375.732 287.500 381.394 291.391 C 384.508 293.531, 387.266 295.621, 387.521 296.034 C 387.776 296.447, 387.089 299.592, 385.993 303.023 C 384.897 306.454, 384 309.657, 384 310.142 C 384 310.626, 386.773 309.005, 390.162 306.539 L 396.324 302.056 402.662 306.578 C 406.148 309.066, 409 310.699, 409 310.207 C 409 309.715, 408.100 306.697, 407 303.500 C 405.900 300.303, 405 297.313, 405 296.855 C 405 296.397, 407.790 293.993, 411.200 291.511 L 417.400 287 409.389 287 L 401.378 287 400.128 282.250 C 399.440 279.637, 398.307 276.150, 397.610 274.500 L 396.342 271.500 393.842 279 M 96.030 345.500 C 94.634 355.286, 93.233 361.998, 92.588 361.996 C 91.990 361.994, 84.563 359.969, 76.084 357.496 C 67.605 355.023, 60.054 353, 59.304 353 C 57.563 353, 65.849 365.474, 75.764 377.779 C 83.120 386.908, 104.462 408, 106.344 408 C 106.941 408, 107.093 402.598, 106.745 393.750 L 106.184 379.500 114.552 369.500 L 122.920 359.500 118.651 355 C 113.371 349.433, 108.619 343.383, 103.138 335.250 C 100.821 331.813, 98.804 329, 98.655 329 C 98.506 329, 97.325 336.425, 96.030 345.500 M 370.862 337.150 C 367.798 341.742, 363.113 347.975, 360.451 351 C 357.789 354.025, 354.980 357.259, 354.209 358.186 C 352.959 359.688, 353.702 360.931, 361.049 369.618 L 369.291 379.365 368.711 393.683 C 368.392 401.557, 368.494 408, 368.939 408 C 370.125 408, 381.593 397.769, 388.377 390.659 C 399.776 378.714, 417.935 354.602, 416.564 353.231 C 416.268 352.934, 408.594 354.861, 399.512 357.512 C 390.429 360.163, 382.719 362.053, 382.379 361.712 C 382.038 361.371, 380.687 354.209, 379.376 345.796 C 378.065 337.383, 376.866 330.117, 376.713 329.650 C 376.559 329.182, 373.926 332.557, 370.862 337.150 M 134.644 351.725 C 112.587 377.724, 112.079 378.390, 113.222 379.768 C 115.031 381.947, 134.033 394.368, 143.213 399.372 C 153.960 405.230, 173.702 413.071, 186 416.364 C 206.587 421.878, 211.832 422.492, 238 422.455 C 260.860 422.423, 263.370 422.236, 275.500 419.663 C 305.136 413.377, 331.813 401.740, 355.734 384.664 C 359.712 381.824, 362.975 379.158, 362.984 378.741 C 362.997 378.132, 339.234 349.288, 334.518 344.189 C 333.533 343.123, 331.493 344.106, 323.654 349.421 C 272.036 384.418, 205.185 384.696, 153 350.131 C 148.325 347.034, 143.957 344.152, 143.294 343.725 C 142.505 343.218, 139.517 345.981, 134.644 351.725 M 137.685 364.378 C 137.394 365.136, 137.618 366.218, 138.181 366.781 C 138.881 367.481, 138.064 369.849, 135.603 374.249 C 131.580 381.444, 131.332 382.530, 133.520 383.369 C 134.639 383.799, 136.015 381.981, 138.736 376.482 C 141.133 371.639, 142.959 369.098, 143.930 369.256 C 146.836 369.730, 146.215 366.162, 143.112 364.558 C 139.407 362.642, 138.365 362.607, 137.685 364.378 M 329.750 365.080 C 328.744 365.666, 328 367.287, 328 368.895 C 328 372.019, 329.729 373.779, 335.250 376.273 C 337.313 377.205, 339 378.650, 339 379.484 C 339 381.466, 338.019 381.408, 336.505 379.338 C 335.768 378.329, 334.625 377.930, 333.601 378.323 C 332.232 378.848, 332.123 379.361, 333.022 381.042 C 334.506 383.814, 336.617 384.495, 339.564 383.153 C 341.301 382.361, 342 381.240, 342 379.244 C 342 375.202, 339.716 372.531, 335.069 371.139 C 332.538 370.381, 331 369.321, 331 368.337 C 331 367.109, 331.307 367.010, 332.373 367.895 C 333.129 368.522, 334.470 368.757, 335.355 368.417 C 336.595 367.942, 336.730 367.364, 335.947 365.900 C 334.831 363.815, 332.461 363.501, 329.750 365.080 M 144.542 376.250 C 142.482 380.788, 140.569 385.063, 140.291 385.750 C 139.982 386.515, 140.606 387, 141.901 387 C 143.435 387, 144.455 385.902, 145.614 383.006 C 146.493 380.810, 147.611 379.260, 148.099 379.561 C 148.586 379.862, 148.048 381.945, 146.903 384.190 C 145.215 387.498, 145.075 388.432, 146.160 389.120 C 148.120 390.362, 148.703 390.202, 149.318 388.250 C 150.754 383.688, 152.702 379.257, 154.352 376.799 C 156.702 373.300, 155.767 370.463, 151.810 369.084 C 150.100 368.488, 148.608 368, 148.494 368 C 148.380 368, 146.601 371.712, 144.542 376.250 M 320.250 370.220 C 319.012 370.817, 318 371.608, 318 371.977 C 318 372.661, 325 389.213, 325.559 389.850 C 326.055 390.414, 333.001 387.910, 332.985 387.172 C 332.941 385.267, 331.035 383.773, 329.431 384.388 C 328.402 384.783, 327.319 384.530, 326.845 383.784 C 325.538 381.723, 325.874 380, 327.583 380 C 328.454 380, 328.968 379.438, 328.726 378.750 C 328.483 378.063, 327.440 377.580, 326.407 377.678 C 324.464 377.862, 323.042 376.425, 323.015 374.250 C 323.007 373.563, 323.723 373, 324.607 373 C 325.662 373, 326.005 372.456, 325.607 371.418 C 325.273 370.548, 325 369.648, 325 369.418 C 325 368.688, 322.579 369.097, 320.250 370.220 M 149.583 373.643 C 149.237 374.547, 149.159 375.492, 149.410 375.743 C 150.205 376.538, 152 374.942, 152 373.441 C 152 371.479, 150.361 371.617, 149.583 373.643 M 157.015 377.464 C 153.381 385.943, 152.564 389.770, 154.016 391.519 C 154.819 392.487, 156.509 392.985, 158.364 392.801 C 161.147 392.525, 161.662 391.840, 164.600 384.500 C 166.362 380.100, 167.596 376.163, 167.342 375.750 C 165.939 373.464, 163.915 375.790, 161.468 382.500 C 159.963 386.625, 158.342 390, 157.866 390 C 156.529 390, 156.799 388.580, 159.500 381.404 C 162.429 373.623, 162.500 373, 160.464 373 C 159.599 373, 158.094 374.948, 157.015 377.464 M 310.200 375.200 C 307.375 378.025, 309.113 382.507, 314 385 C 317.568 386.820, 320.072 390, 317.937 390 C 317.387 390, 316.678 389.325, 316.362 388.500 C 315.712 386.806, 313.429 386.498, 312.513 387.979 C 312.180 388.518, 312.408 389.894, 313.020 391.038 C 314.353 393.528, 319.709 393.442, 321.296 390.905 C 322.900 388.342, 321.212 384.023, 317.889 382.183 C 312.740 379.332, 311.461 378.203, 312.388 377.332 C 312.875 376.874, 313.459 377.015, 313.685 377.644 C 314.107 378.818, 318 378.312, 318 377.083 C 318 375.689, 315.534 374, 313.500 374 C 312.345 374, 310.860 374.540, 310.200 375.200 M 168.547 379.137 C 164.982 389.323, 163.241 395.637, 163.834 396.231 C 164.235 396.633, 165.946 397.239, 167.637 397.577 C 169.979 398.046, 170.867 397.789, 171.360 396.504 C 171.814 395.322, 171.389 394.653, 169.948 394.276 C 168.659 393.939, 168.095 393.194, 168.443 392.287 C 168.750 391.489, 169 390.648, 169 390.418 C 169 390.188, 169.900 390, 171 390 C 172.111 390, 173 389.333, 173 388.500 C 173 387.675, 172.367 387, 171.594 387 C 170.680 387, 170.370 386.300, 170.710 385 C 171.049 383.706, 172.074 383, 173.617 383 C 175.333 383, 176 382.441, 176 381 C 176 379.900, 175.438 378.994, 174.750 378.986 C 174.063 378.979, 172.493 378.703, 171.262 378.373 C 169.833 377.990, 168.852 378.266, 168.547 379.137 M 299.750 379.080 C 298.712 379.685, 298 381.294, 298 383.037 C 298 385.367, 298.811 386.487, 301.916 388.447 C 306.189 391.145, 307.574 392.759, 306.518 393.815 C 306.143 394.190, 305.228 393.665, 304.485 392.648 C 303.741 391.632, 302.653 391.096, 302.067 391.459 C 298.944 393.389, 303.057 398.054, 307 397.055 C 309.005 396.546, 309.560 395.704, 309.805 392.799 C 310.054 389.845, 309.630 388.837, 307.508 387.338 C 301.629 383.185, 300.538 382.134, 301.304 381.365 C 301.747 380.921, 302.481 381.160, 302.935 381.895 C 303.515 382.833, 304.273 382.947, 305.470 382.277 C 307.062 381.386, 307.065 381.208, 305.518 379.660 C 303.623 377.766, 302.245 377.627, 299.750 379.080 M 289.181 381.057 C 287.620 381.683, 287.026 382.561, 287.366 383.743 C 287.644 384.710, 288.412 388.988, 289.073 393.250 C 290.042 399.499, 290.613 401, 292.021 401 C 292.981 401, 294.052 399.988, 294.400 398.750 C 295.020 396.544, 295.062 396.538, 296.520 398.446 C 297.633 399.902, 298.294 400.106, 299.147 399.253 C 300.526 397.874, 294.441 379.961, 292.627 380.063 C 292.007 380.098, 290.456 380.545, 289.181 381.057 M 183.312 391.250 C 180.987 401.535, 181.218 402.192, 187 401.761 C 190.115 401.529, 190.643 401.062, 191.801 397.514 C 192.517 395.322, 193.375 391.542, 193.708 389.115 C 194.392 384.120, 192.695 382, 188.010 382 C 185.539 382, 185.294 382.483, 183.312 391.250 M 359.804 386.438 C 356.670 388.672, 354.083 390.871, 354.054 391.323 C 354.024 391.776, 356.363 395.022, 359.250 398.537 L 364.500 404.926 365.283 398.213 C 365.714 394.521, 365.939 389.447, 365.783 386.938 L 365.500 382.375 359.804 386.438 M 109.822 394.237 L 110.144 405.500 114.093 401 C 116.265 398.525, 118.933 395.305, 120.022 393.844 L 122.002 391.189 116.902 387.525 C 114.097 385.510, 111.284 383.662, 110.651 383.417 C 109.813 383.094, 109.588 386.039, 109.822 394.237 M 277.227 384.839 C 276.203 385.489, 276.251 387.101, 277.474 393.073 C 279.841 404.640, 279.945 404.953, 281.260 404.548 C 281.942 404.339, 283.722 403.900, 285.215 403.573 C 287.116 403.157, 287.755 402.524, 287.346 401.460 C 286.992 400.537, 286.060 400.164, 284.971 400.509 C 283.453 400.991, 282.935 400.008, 281.589 394.092 C 280.715 390.249, 280 386.407, 280 385.553 C 280 383.835, 279.153 383.617, 277.227 384.839 M 188.705 386 C 187.927 388.215, 186 396.720, 186 397.943 C 186 398.524, 186.389 399, 186.863 399 C 187.942 399, 190.412 387.680, 189.732 385.848 C 189.335 384.776, 189.125 384.808, 188.705 386 M 195.073 392.750 C 194.412 397.012, 193.663 401.232, 193.408 402.126 C 193.116 403.148, 193.681 403.945, 194.927 404.271 C 196.619 404.713, 197.006 404.145, 197.568 400.394 C 197.931 397.978, 198.654 396, 199.175 396 C 199.731 396, 199.844 397.857, 199.448 400.500 C 198.888 404.234, 199.044 405, 200.367 405 C 201.244 405, 202.203 403.988, 202.498 402.750 C 203.015 400.582, 203.287 399.037, 204.629 390.635 C 205.336 386.202, 204.252 385.039, 199.387 385.015 L 196.274 385 195.073 392.750 M 291.358 386.750 C 291.629 387.712, 292.146 389.966, 292.507 391.759 C 292.868 393.551, 293.546 394.781, 294.015 394.491 C 294.836 393.984, 292.303 385, 291.339 385 C 291.078 385, 291.087 385.788, 291.358 386.750 M 208.461 387.439 C 207.944 389.092, 205.968 405.302, 206.249 405.577 C 206.387 405.711, 208.188 406.137, 210.250 406.522 C 213.564 407.141, 214 406.991, 214 405.228 C 214 404.096, 213.162 403.014, 212.065 402.727 C 209.522 402.062, 210.426 398, 213.117 398 C 214.152 398, 215 397.325, 215 396.500 C 215 395.641, 214.099 395, 212.893 395 C 211.383 395, 210.958 394.552, 211.393 393.418 C 211.727 392.548, 212 391.648, 212 391.418 C 212 391.188, 212.900 391, 214 391 C 215.295 391, 216 390.333, 216 389.109 C 216 387.683, 215.115 387.116, 212.396 386.798 C 210.364 386.561, 208.648 386.840, 208.461 387.439 M 267.533 387.352 C 265.933 388.522, 265.767 389.603, 266.303 395.347 C 267.059 403.437, 268.300 406, 271.464 406 C 274.959 406, 277.286 403.274, 276.491 400.108 C 275.678 396.868, 275.430 396.621, 273.667 397.298 C 272.749 397.650, 272.422 398.755, 272.740 400.421 C 273.345 403.583, 271.429 403.889, 270.680 400.750 C 269.203 394.558, 268.828 389, 269.886 389 C 270.499 389, 271 389.825, 271 390.833 C 271 393.193, 271.841 393.998, 273.598 393.324 C 275.469 392.606, 275.378 389.521, 273.429 387.571 C 271.502 385.645, 269.947 385.587, 267.533 387.352 M 199.605 389.588 C 198.755 391.803, 198.852 393, 199.883 393 C 201.061 393, 202.031 389.137, 201.011 388.507 C 200.570 388.234, 199.937 388.721, 199.605 389.588 M 219.546 390.250 C 218.515 394.957, 217 404.442, 217 406.184 C 217 408.372, 219.551 408.612, 220.362 406.500 C 221.087 404.611, 223 404.533, 223 406.393 C 223 408.019, 225.690 409.311, 226.464 408.058 C 226.755 407.588, 226.704 403.143, 226.352 398.180 C 225.781 390.131, 225.485 389.097, 223.606 388.593 C 220.362 387.722, 220.073 387.840, 219.546 390.250 M 248.667 388.667 C 246.873 390.460, 248.128 395.748, 251 398.500 C 253.968 401.344, 254.934 404, 253 404 C 252.450 404, 252 403.325, 252 402.500 C 252 401.667, 251.111 401, 250 401 C 247.771 401, 247.491 402.181, 249.035 405.066 C 251.288 409.275, 258 406.656, 258 401.569 C 258 400.709, 256.362 398.193, 254.360 395.976 C 252.358 393.760, 251.069 391.622, 251.497 391.224 C 251.924 390.826, 252.475 391.063, 252.720 391.750 C 253.153 392.961, 257 393.576, 257 392.434 C 257 392.123, 256.534 390.998, 255.965 389.934 C 254.954 388.045, 250.126 387.207, 248.667 388.667 M 230 399 C 230 407.222, 230.267 409, 231.500 409 C 232.665 409, 233.018 407.604, 233.079 402.750 C 233.162 396.174, 234.114 397.193, 235.475 405.312 C 235.953 408.164, 236.538 409.043, 237.795 408.801 C 238.998 408.569, 239.697 406.937, 240.256 403.054 C 241.331 395.583, 242 395.498, 242 402.833 C 242 407.648, 242.329 409, 243.500 409 C 244.733 409, 245 407.222, 245 399 L 245 389 242.162 389 C 239.485 389, 239.269 389.327, 238.360 394.750 L 237.396 400.500 236.583 394.750 C 235.807 389.267, 235.636 389, 232.885 389 L 230 389 230 399 M 221.814 396.981 C 221.150 401.323, 221.401 402.932, 222.563 401.771 C 222.872 401.461, 222.985 399.249, 222.813 396.854 L 222.500 392.500 221.814 396.981" stroke="none" fill="#0e1d52" fill-rule="evenodd"/></svg>